<?xml version="1.0" encoding="utf-8"?>
<svg version="1.1" id="my-trello-logo-svg"
	xmlns="http://www.w3.org/2000/svg"
	xmlns:xlink="http://www.w3.org/1999/xlink"
	x="0px" y="0px"
	width="885" height="272"
	viewBox="0 0 885 272"
	style="enable-background:new 0 0 885 272;" xml:space="preserve">
<path fill="#ffffff"
	d="M723.3,178.6c-12.8,5.2-22.8,23.2-38.2,33.4c-1,0.6-1.9, 0.9-2.5,0.9c-1.3,0-2.8-1.3-2.8-7 c0-19.6,6.3-29.1,11.7-43.1c18.7-48.5,50.7-90, 79.2-135.3c2.2-3.5,3.5-7.3,3.5-11.4c0-3.5-1.3-6.3-2.9-9.8C770,3.5,764.3,1,758,1 c-3.5,0-6.7,0.3-10.8,0.3c-14.9,0-18.1,21.9-21.5,27.6c-23.8,40.2-51,90-64.9, 125.1c-3.1,7.9-6.4,15.8-8.9,23.9 c-13.8,4-24.1,23.4-40.2,34.1c-1,0.6-1.9,0.9-2.5, 0.9c-1.3,0-2.8-1.3-2.8-7c0-19.6,6.3-29.1,11.7-43.1c18.7-48.5,50.7-90,79.2-135.3 c2.2-3.5,3.5-7.3,3.5-11.4c0-3.5-1.3-6.3-2.9-9.8c-1.3-2.9-7-5.4-13.3-5.4c-3.5,0-6.7,0.3-10.8,0.3c-14.9,0-18.1,21.9-21.5,27.6 c-23.8,40.2-51,90-64.9,125.1c-1.1,2.9-2.2,5.7-3.4,8.6c-0.3,0.2-0.7,0.4-1.1,0.6c-16.2,9.5-29.8,26.3-49.4,37.7 c-3.8,2.2-15.5,10.5-25,10.5c-2.2,0-4.1-0.6-6-1.6c-2.9-1.3-5.7-7.3-5.7-9.2c0-1.6,0.3-1.9, 3.5-3.8c27.9-16.8,50.7-40.9,70.3-64.9 c7.3-8.9,16.8-26.3, 16.8-39c0-8.2-2.8-17.7-12.7-21.2c-7-2.5-14.9-3.8-21.2-3.8c-16.8,0-29.1,7.6-36.1,14.9 c-7.1,7.6-14,15.4-20.3,23.4c-6.7-5.8-16.1-8.2-25-8.2c-10.5,0-30.1,13-40.2,20.6c-1.6,1.3-2.5,1.9-3.2,1.9c-0.3,0-0.6-0.3-0.6-0.9 c0-0.3,0.6-3.2,0.6-8.2c0-4.4-1-10.1-5.1-17.1c-1-1.6-6.7-5.1-13.6-5.1c-8.6,0-16.5,4.1-16.5,8.6c0,3.2,2.9,4.4,2.9,7.3 c0,1.6-1.3,8.9-3.2,15.8c-5.4,20.3-12,40.2-19,60.2c-3.8,11.1-16.5,20.9-16.5,32.9c0,3.8,2.5,8.9,6,12.7c5.7,6.3,9.2,8.6,14.3,8.6 c2.2,0,4.8-0.6,7-2.5c4.8-4.1,7.3-8.2,8.6-13.9c8.2-37.4,32-62.7,58.3-79.5c8.9-5.7,20.9-11.7,22.5-11.7c1.6,0,4.2,0.8,6.7,1.5 c-7.4,12-13.3,24.6-17.2,38.1c-1.3,4.4-1.9,8.6-1.9,13c0,7.3,1.6,14.9,4.1,22.2c3.5,10.1,9.2,19,17.1,23.1 c14.6,7.6,25,11.7,34.5,11.7c5.4,0,9.5-0.9,13.9-3.5c20.8-11.8,33.6-20.7,42.8-28.7c0.3,8.1,1.8,12.5,7.6,18.5 c5.7,6,14.6,11.4,26.3,13.9c1.9,0.3,3.8,0.6,5.7,0.6c13.4,0,26.3-10.9,36.3-21.7c1.2,2.4,2.8,4.6,5.2,7.1c5.7,6,14.6,11.4,26.3,13.9 c1.9,0.3,3.8,0.6,5.7,0.6c15.7,0,30.7-15,41.1-27.2c3.5,7.2,13.1,14.2,24.8,19.9c3.2,1.6,7,2.5,10.5,2.5c13.6,0,23.4-11.1,31-19.3 c19.6-21.5,30.4-48.2,38.7-81.7c0.6-2.5,1.6-3.5,2.9-3.5c3.2,0,7.3,0,11.7-0.6c8.6-1.3,15.2-4.1,23.1-5.4c4.8-0.9,4.1-2.5,8.6-4.1 c3.2-1.3,5.7-2.5,5.7-5.7c0-5.4-9.8-11.1-24.7-11.1c-11.7,0-18.7,0.9-23.4,0.9c-7.3,0-9.2-2.2-13.9-14.6c0,0,4.8,12.4,0,0 c-1-2.5-1.9-3.8-4.8-6.3c-6.7-5.7-14.9-7.6-21.5-7.6c-15.8,0-29.5,16.2-39,29.8c-2.2,3.2-5.4,5.7-7.6,9.2 C737.3,132.7,724.8,154.8,723.3,178.6L723.3,178.6z M318.3,70.7c7.9,0,12.4-0.6,13.3-0.6c1,0,1.6,0.3,1.6,1.3c0,0.6-0.3,1.6-2.5,6.3 c-19.3,41.5-32.6,83.6-44.4,130.2c-0.3,1.3-1.3,6-1.3,10.8c0,4.4,1.3,9.2,5.7,11.7c8.6,5.1,15.5,7.3,20.3,7.3 c7,0,10.5-4.4,10.5-11.7c0-6.3,0.3-13,1.3-18.1c8.9-46.6,22.2-83,42.8-121c9.8-18.1,11.1-19,11.1-20.6c0-0.6-0.3-1.6-1-2.5 c12.7-2.8,27.9-4.8,41.8-4.8c1.6,0,7.9,2.2,8.9,3.2c2.2,2.2,4.4,4.4,8.2,4.4c3.2,0,8.6-2.2,10.5-3.5c4.4-3.2,6.7-6.7,6.7-12.4 c0-5.4-20-18.7-33.9-18.7c-17.1,0-32.6,2.2-47.2,5.1c-6.3,1.3-29.1,4.8-45.6,4.8c-15.8,0-14.9-2.2-21.5-2.2c-3.8,0-5.7,1.9-7.3,3.5 s-2.5,7.9-2.5,13.6c0,2.8,0,5.1,1.6,7C299.9,69.4,309.1,70.7,318.3,70.7C318.3,70.7,309.1,70.7,318.3,70.7L318.3,70.7z M553,96.4 c0,2.9-1,4.8-4.8,10.8c-3.8,6-2.2,6-7,12.4c-9.2,12.4-20.6,24.7-35.5,38.3c-4.1,3.8-4.8,3.8-5.4,3.8c-0.3,0-1-0.3-1-0.9 c0-0.9,0.3-2.2,3.5-8.9c9.8-20.6,21.9-34.2,35.2-47.5c7.3-7.3,11.7-9.8,13.3-9.8C552.4,94.5,553,94.8,553,96.4 C553,96.4,553,94.8,553,96.4L553,96.4z M796.6,104.6c0.3,0,0.6,0.3,1,0.9c0.3,0.9,1,1.9,2.5,3.2c1.3,0.9,1.3,5.4,1.3,8.9 c0,30.7-17.4,56.1-34.5,81.7c-3.8,5.7-6,6.7-7.9,6.7c-1.6,0-4.1-4.1-5.1-6.7c-1.3-3.5-1.6-7.6-1.6-9.2c0-24.7,23.4-61.5,39-81.7 C793.8,104.9,795.7,104.6,796.6,104.6C796.6,104.6,795.7,104.6,796.6,104.6L796.6,104.6z"/>
<path fill="#004d40"
	d="M75,36c-13.8,0-25,11.2-25,25v150c0,13.8,11.2,25,25,25h150c13.8,0,25-11.2,25-25V61c0-13.8-11.2-25-25-25H75z"
	/>
<path fill="#ffffff"
	d="M200.1,54.1c-42.8,0-117.6,29.3-117.6,35.8c0,3.2,1.8,3.8,4.1,3.8c2.7,0,3.6-2,6.3-4.1 c6.1-4.3,17.8-11.9,49.8-19.1c-2.7,11.9-16.2,57-16.2,57c-3.2,0.2-5.6,0.9-7.9,2.3c-2.7,1.6-7.4,6.3-7.4,9.7c0,1.1,0.2,1.4,1.4,1.4 s4.5-1.1, 6.3-1.4c2.5-0.5,4.5-0.7,4.5-0.7c-13.5,56.8-23.2,61-28.2,61c-4.3, 0-7.2-2-9.2-4.5l-1.6,0.2c0,11.9,2.5,22.3,9.5,22.3 c10.4,0,27.9-33.3,44.4-80.2c7,0,16.7-0.9,20.7-1.6c14.9-2.3,30-6.3,30-11.3c0-0.5-0.5-0.7-1.4-0.7c-2.9,0-10.1,1.8-20.7,2.5 c-9.7,0.7-24.6,0.2-24.6,0.2S153,89,158.7,67c3.6-0.7,16-2.9,24.1-2.9c11.5,0,17.6,1.8,17.6,5.9c0,3.2-1.1,6.5-7.9,10.4l0.7,1.6 c8.1-1.8,24.3-9.7,24.3-19.6C217.5,56.1,211.2,54.1,200.1,54.1z M192.9,159.9c0.3-0.6,2.3-3.4,3.7-5.5c1.4-2.2,2.7-3.9,2.7-5 c0-0.9-0.8-0.7-1.3-0.7c-1.9,0-6.3,7.5-7.9,9.8c-11.1-4.8-27.6-6.2-34.5-5.3c-16.5,2.1-27.6,11.5-27.6,16.9c0,1.8,1.1,1.8,2.2,1.8 c2.2,0,1-2.8,3.5-5.3c6.5-6.6,13.7-8.9,20.4-9c0.5,0,1,0,1.5,0c4.4,0.3,7,2.4,7,7c0,4.5-3.9,7.5-9,10.9c-1.7,1.1-5.3,2.6-5.3,5.6 c0,2,1.8,3.2,4.3,5.4c3.1,2.7,9.1,6.1,9.1,13.3c0,7.8-6,10.1-15.1,10.1c-4.2,0-9.9-3-11.6-5.4c0,0,3.5-11.7,6.2-19.4 c3.3-9.6,7.2-20.6,8.9-24.7c0,0-3.3-0.7-6.8,4.6c-5.5,12.4-12.5,34.7-12.5,34.7c-0.6-0.1-3.1-0.2-3.1,2.6c0,1.8,0.6,2.3,1,3.2 c-0.4,1.1-1.6,4.2-1.6,5.4c0,0.6,0.6,0.8,1.1,0.8c2.2,0,3.8-1.3,5.2-3.2c1.7,1.1,6.3,3.4,12,3.4c11.5,0,22.1-5.3,22.1-14.7 c0-8.5-14.1-14.7-14.1-18.4c0-2.4,15.1-9.2,15.1-16c0-1.6-0.2-4.4-3-5.9c8.1,0.5,16.8,3.4,21.7,6.3c-2.2,3.9-9.7,19.4-18.9,40.1 c-2.3,5.2-4.7,8.4-4.7,9c0,0.8,1.4,0.8,2.5,0.8c0.9,0,1.7-0.1,6.5-0.1c9,0,16.4,0,25.2-4.2c7-3.4,14-11.5,14-18.4 C212,176.2,202.8,166.3,192.9,159.9z M200.3,204.8c-5.4,3.4-16.7,2.5-21.2,2.5c-5.8,0-8.2-0.2-8.2-0.2c2.7-8.4,14-33.7,19.1-42.1 c9.5,6.1,16.1,16.1,16.1,27.4C206.1,195.9,204.7,201.9,200.3,204.8z"/>
</svg>
