<?xml version="1.0" encoding="utf-8"?>
<svg version="1.1" id="icons_24x24"
	xmlns="http://www.w3.org/2000/svg"
	xmlns:xlink="http://www.w3.org/1999/xlink"
	x="0px" y="0px"
	width="240" height="240"
	viewBox="0 0 240 240"
	style="enable-background:new 0 0 240 240;"
	xml:space="preserve">

	<style type="text/css">
		.back {
			fill: #ffffff;
		}

		.line {
			fill:none;
			stroke-linecap:round;
			stroke-linejoin:round;
			stroke-miterlimit:10;
		}

		.line_light-green{
			stroke:#00806A;
		}

		.line_green{
			stroke:#004D40;
		}

		.line_red{
			stroke:#C11515;
		}
	</style>

	<g class="login">
		<path class="back" d="M69,24H51c-1.7,0-3-1.4-3-3V3c0-1.6,1.3-3,3-3h18c1.7,0,3,1.4,3,3v18C72,22.6,70.7,24,69,24z"/>
		<path class="line line_green" fill="none" d="M53.9,17.3V20c0,1.1,0.9,2,2,2h11.3c1.1,0,2-0.9,2-2V4c0-1.1-0.9-2-2-2H55.9c-1.1,0-2,0.9-2,2v2.7"/>
		<polygon class="line line_light-green" fill="none" points="50.9,9.7 57.8,9.7 57.8,4.5 63.7,12 57.8,19.5 57.8,14.3 50.9,14.3 	"/>
	</g>
	<g class="logout">
		<path class="back" d="M93,24H75c-1.7,0-3-1.4-3-3V3c0-1.6,1.3-3,3-3h18c1.7,0,3,1.4,3,3v18C96,22.6,94.7,24,93,24z"/>
		<path class="line line_green" fill="none" d="M90.1,4.7V4c0-1.1-0.9-2-2-2H76.9c-1.1,0-2,0.9-2,2v16c0,1.1,0.9,2,2,2h11.3c1.1,0,2-0.9,2-2v-0.7"/>
		<polygon class="line line_red" fill="none" points="80.3,14.3 87.2,14.3 87.2,19.5 93.1,12 87.2,4.5 87.2,9.7 80.3,9.7 	"/>
	</g>
	<g class="home">
		<path class="back" d="M21,24H3c-1.6,0-3-1.4-3-3V3c0-1.6,1.4-3,3-3h18c1.6,0,3,1.4,3,3v18C24,22.6,22.6,24,21,24z"/>
		<polygon class="line line_green" fill="none" points="6.2,20.6 6.2,11.4 2,11.4 12,3.4 22,11.4 17.8,11.4 17.8,20.6 	"/>
		<polygon class="line line_light-green" fill="none" points="14.4,17.8 9.6,17.8 9.6,13 14.4,13 	"/>
	</g>
	<g class="dashboard">
		<path class="back" d="M45,24H27c-1.6,0-3-1.4-3-3V3c0-1.6,1.4-3,3-3h18c1.7,0,3,1.4,3,3v18C48,22.6,46.7,24,45,24z"/>
		<path class="line line_green" fill="none" d="M44,19.6c1.1,0,2-0.9,2-2V6.4c0-1.1-0.9-2-2-2H28c-1.1,0-2,0.9-2,2v11.3c0,1.1,0.9,2,2,2L44,19.6z"/>
		<path class="line line_light-green" fill="none" d="M31.8,9.6c0.2,0,0.4-0.2,0.4-0.4V6.8c0-0.2-0.2-0.4-0.4-0.4h-3.4c-0.2,0-0.4,0.2-0.4,0.4v2.4 c0,0.2,0.2,0.4,0.4,0.4H31.8z"/>
		<path class="line line_light-green" fill="none" d="M37.7,9.6c0.2,0,0.4-0.2,0.4-0.4V6.8c0-0.2-0.2-0.4-0.4-0.4h-3.4c-0.2,0-0.4,0.2-0.4,0.4v2.4 c0,0.2,0.2,0.4,0.4,0.4H37.7z"/>
		<path class="line line_light-green" fill="none" d="M37.3,17.6c0.4,0,0.8-0.4,0.8-0.8v-4.5c0-0.4-0.4-0.8-0.8-0.8h-8.5c-0.4,0-0.8,0.4-0.8,0.8v4.5 c0,0.4,0.4,0.8,0.8,0.8H37.3z"/>
		<path class="line line_light-green" fill="none" d="M43.6,9.6c0.2,0,0.4-0.2,0.4-0.4V6.8c0-0.2-0.2-0.4-0.4-0.4h-3.4c-0.2,0-0.4,0.2-0.4,0.4v2.4 c0,0.2,0.2,0.4,0.4,0.4H43.6z"/>
		<path class="line line_light-green" fill="none" d="M43.6,17.6c0.2,0,0.4-0.2,0.4-0.4V12c0-0.2-0.2-0.4-0.4-0.4h-3.4c-0.2,0-0.4,0.2-0.4,0.4v5.3 c0,0.2,0.2,0.4,0.4,0.4L43.6,17.6L43.6,17.6z"/>
		<line class="line line_red" fill="none" x1="29.8" y1="13.1" x2="31.1" y2="13.1"/>
		<line class="line line_red" fill="none" x1="32.4" y1="13.1" x2="33.7" y2="13.1"/>
		<line class="line line_red" fill="none" x1="35" y1="13.1" x2="36.3" y2="13.1"/>
		<line class="line line_red" fill="none" x1="29.8" y1="14.6" x2="31.1" y2="14.6"/>
		<line class="line line_red" fill="none" x1="32.4" y1="14.6" x2="33.7" y2="14.6"/>
		<line class="line line_red" fill="none" x1="35" y1="14.6" x2="36.3" y2="14.6"/>
		<line class="line line_red" fill="none" x1="29.8" y1="16.1" x2="31.1" y2="16.1"/>
		<line class="line line_red" fill="none" x1="32.4" y1="16.1" x2="33.7" y2="16.1"/>
		<line class="line line_red" fill="none" x1="35" y1="16.1" x2="36.3" y2="16.1"/>
	</g>
	<g class="add">
		<path class="back" d="M117,24H99c-1.7,0-3-1.4-3-3V3c0-1.6,1.3-3,3-3h18c1.7,0,3,1.4,3,3v18C120,22.6,118.7,24,117,24z"/>
		<circle class="line line_green" fill="none" cx="108" cy="12" r="8.8"/>
		<line class="line line_light-green" fill="none" x1="102.9" y1="12" x2="113.1" y2="12"/>
		<line class="line line_light-green" fill="none" x1="108" y1="6.9" x2="108" y2="17.1"/>
	</g>
	<g class="remmove">
		<path class="back" d="M141,24h-18c-1.7,0-3-1.4-3-3V3c0-1.6,1.3-3,3-3h18c1.6,0,3,1.4,3,3v18C144,22.6,142.6,24,141,24z"/>
		<circle class="line line_green" fill="none" cx="132" cy="12" r="8.8"/>
		<line class="line line_red" fill="none" x1="126.9" y1="12" x2="137.1" y2="12"/>
	</g>
	<g class="remmove">
		<path class="back" d="M165,24h-18c-1.6,0-3-1.4-3-3V3c0-1.6,1.4-3,3-3h18c1.6,0,3,1.4,3,3v18C168,22.6,166.6,24,165,24z"/>
		<path class="line line_green" d="M163.5,4c0-1.1-0.9-2-2-2h-11.2c-1.1,0-2,0.9-2,2v16c0,1.1,0.9,2,2,2h11.3c1.1,0,2-0.9,2-2L163.5,4z"/>
		<circle class="line line_light-green" cx="156" cy="8.2" r="3.3"/>
		<path class="line line_light-green" d="M149.9,17.7c0-3.4,2.7-6.1,6.1-6.1s6.1,2.7,6.1,6.1H149.9z"/>
		<path class="line line_red" d="M162.1,19h-12.3"/>
	</g>
	<g>
		<path class="back" d="M189,24h-18c-1.6,0-3-1.4-3-3V3c0-1.6,1.4-3,3-3h18c1.6,0,3,1.4,3,3v18C192,22.6,190.6,24,189,24z"/>
		<line class="line line_red" x1="183.8" y1="19.5" x2="171.5" y2="19.5"/>
		<line class="line line_red" x1="183.8" y1="4.5" x2="171.5" y2="4.5"/>
		<line class="line line_red" x1="171.5" y1="17" x2="176.1" y2="17"/>
		<line class="line line_red" x1="183.8" y1="17" x2="178.8" y2="17"/>
		<line class="line line_red" x1="176.8" y1="14.5" x2="171.5" y2="14.5"/>
		<line class="line line_red" x1="177.5" y1="12" x2="171.5" y2="12"/>
		<line class="line line_red" x1="179.5" y1="9.5" x2="171.5" y2="9.5"/>
		<line class="line line_red" x1="182" y1="7" x2="171.5" y2="7"/>
		<path class="line line_light-green" d="M189.9,5.3l-1.4-1.4c-0.5-0.5-1.4-0.5-1.9,0l-0.9,0.9l3.3,3.3l0.9-0.9C190.4,6.6,190.4,5.8,189.9,5.3z"/>
		<polygon class="line line_light-green" points="187.4,7.6 180.5,14.5 181,15 179.2,15.5 178.2,14.5 178.7,12.7 180.1,14 187,7.1 185.1,5.2 
			178.5,11.8 177.3,16.4 181.9,15.2 188.5,8.6 	"/>
		<path class="line line_green" d="M185.2,3.8c-0.1-1-1-1.8-2-1.8H172c-1.1,0-2,0.9-2,2v16c0,1.1,0.9,2,2,2h11.3c1.1,0,2-0.9,2-2l0-6.8"/>
	</g>
</svg>
