<?xml version="1.0" encoding="utf-8"?>
<svg version="1.1" id="icons_24x24"
	xmlns="http://www.w3.org/2000/svg"
	xmlns:xlink="http://www.w3.org/1999/xlink"
	x="0px" y="0px"
	width="320" height="320"
	viewBox="0 0 320 320"
	style="enable-background:new 0 0 320 320;"
	xml:space="preserve">

	<style type="text/css">
		.back {
			fill: rgba(255, 255, 255, 0.5);
		}

		.line {
			fill:none;
			stroke-linecap:round;
			stroke-linejoin:round;
			stroke-miterlimit:10;
		}

		.line_light-green{
			stroke:#00806A;
		}

		.line_green{
			stroke:#004D40;
		}

		.line_red{
			stroke:#C11515;
		}
	</style>

	<g class="home">
		<path class="back" d="M29,32H3c-1.6,0-3-1.4-3-3V3c0-1.6,1.4-3,3-3h26c1.6,0,3,1.4,3,3v26C32,30.6,30.6,32,29,32z"/>
		<polygon class="line line_green" points="8.3,27.5 8.3,15.2 2.7,15.2 16,4.5 29.3,15.2 23.7,15.2 23.7,27.5 	"/>
		<polygon class="line line_light-green" points="19.2,23.7 12.8,23.7 12.8,17.3 19.2,17.3 	"/>
	</g>
	<g class="dashboard">
		<path class="back" d="M61,32H35c-1.7,0-3-1.4-3-3V3c0-1.6,1.3-3,3-3h26c1.7,0,3,1.4,3,3v26C64,30.6,62.7,32,61,32z"/>
		<path class="line line_green" d="M58.7,26.1c1.5,0,2.7-1.2,2.7-2.7V8.5c0-1.5-1.2-2.7-2.7-2.7H37.3c-1.5,0-2.7,1.2-2.7,2.7v15.1 c0,1.5,1.2,2.7,2.7,2.7L58.7,26.1z"/>
		<path class="line line_light-green" d="M42.4,12.8c0.3,0,0.5-0.3,0.5-0.5V9.1c0-0.3-0.3-0.5-0.5-0.5h-4.5c-0.3,0-0.5,0.3-0.5,0.5v3.2 c0,0.3,0.3,0.5,0.5,0.5H42.4z"/>
		<path class="line line_light-green" d="M50.3,12.8c0.3,0,0.5-0.3,0.5-0.5V9.1c0-0.3-0.3-0.5-0.5-0.5h-4.5c-0.3,0-0.5,0.3-0.5,0.5v3.2 c0,0.3,0.3,0.5,0.5,0.5H50.3z"/>
		<path class="line line_light-green" d="M58.1,12.8c0.3,0,0.5-0.3,0.5-0.5V9.1c0-0.3-0.3-0.5-0.5-0.5h-4.5c-0.3,0-0.5,0.3-0.5,0.5v3.2 c0,0.3, 0.3,0.5,0.5,0.5H58.1z"/>
		<path class="line line_light-green" d="M49.7,23.5c0.5,0,1.1-0.5,1.1-1.1v-6c0-0.5-0.5-1.1-1.1-1.1H38.4c-0.5,0-1.1,0.5-1.1,1.1v6 c0,0.5,0.5,1.1,1.1,1.1H49.7z"/>
		<path class="line line_light-green" d="M58.1,23.5c0.3,0,0.5-0.3,0.5-0.5V16c0-0.3-0.3-0.5-0.5-0.5h-4.5c-0.3,0-0.5,0.3-0.5,0.5v7.1 c0,0.3,0.3,0.5,0.5,0.5h4.5V23.5z"/>
		<line class="line line_red" x1="39.7" y1="17.5" x2="41.5" y2="17.5"/>
		<line class="line line_red" x1="43.2" y1="17.5" x2="44.9" y2="17.5"/>
		<line class="line line_red" x1="46.7" y1="17.5" x2="48.4" y2="17.5"/>
		<line class="line line_red" x1="39.7" y1="19.5" x2="41.5" y2="19.5"/>
		<line class="line line_red" x1="43.2" y1="19.5" x2="44.9" y2="19.5"/>
		<line class="line line_red" x1="46.7" y1="19.5" x2="48.4" y2="19.5"/>
		<line class="line line_red" x1="39.7" y1="21.5" x2="41.5" y2="21.5"/>
		<line class="line line_red" x1="43.2" y1="21.5" x2="44.9" y2="21.5"/>
		<line class="line line_red" x1="46.7" y1="21.5" x2="48.4" y2="21.5"/>
	</g>
	<g class="login">
		<path class="back" d="M93,32H67c-1.7,0-3-1.4-3-3V3c0-1.6,1.3-3,3-3h26c1.7,0,3,1.4,3,3v26C96,30.6,94.7,32,93,32z"/>
		<polygon class="line line_light-green" points="67.9,12.9 77.1,12.9 77.1,6 84.9,16 77.1,26 77.1,19.1 67.9,19.1 	"/>
		<path class="line line_green" d="M71.9,23.1v3.6c0,1.5,1.2,2.7,2.7,2.7h15.1c1.5,0, 2.7-1.2,2.7-2.7V5.3c0-1.5-1.2-2.7-2.7-2.7H74.5 c-1.5,0-2.7,1.2-2.7,2.7v3.6"/>
	</g>
	<g class="logout">
		<path class="back" d="M125,32H99c-1.7,0-3-1.4-3-3V3c0-1.6,1.3-3,3-3h26c1.7,0,3,1.4,3,3v26C128,30.6,126.7,32,125,32z"/>
		<polygon class="line line_red" points="107.1,19.1 116.3,19.1 116.3,26 124.1,16 116.3,6 116.3,12.9 107.1,12.9 	"/>
		<path class="line line_green" d="M120.1,6.3V5.3c0-1.5-1.2-2.7-2.7-2.7h-14.9c-1.5,0-2.7,1.2-2.7,2.7v21.3c0,1.5,1.2,2.7,2.7,2.7h15.1 c1.5,0,2.7-1.2,2.7-2.7v-0.9"/>
	</g>
	<g class="add">
		<path class="back" d="M157,32h-26c-1.6,0-3-1.4-3-3V3c0-1.6,1.4-3,3-3h26c1.6,0,3,1.4,3,3v26C160,30.6,158.6,32,157,32z"/>
		<circle class="line line_green" cx="144" cy="16" r="11.7"/>
		<line class="line line_light-green" x1="137.2" y1="16" x2="150.8" y2="16"/>
		<line class="line line_light-green" x1="144" y1="9.2" x2="144" y2="22.8"/>
	</g>
	<g class="remmove">
		<path class="back" d="M189,32h-26c-1.6,0-3-1.4-3-3V3c0-1.6,1.4-3,3-3h26c1.6,0,3,1.4,3,3v26C192,30.6,190.6,32,189,32z"/>
		<circle class="line line_green" cx="176" cy="16" r="11.7"/>
		<line class="line line_red" x1="169.2" y1="16" x2="182.8" y2="16"/>
	</g>
	<g class="profile">
		<path class="back" d="M221,32h-26c-1.6,0-3-1.4-3-3V3c0-1.6,1.4-3,3-3h26c1.6,0,3,1.4,3,3v26C224,30.6,222.6,32,221,32z"/>
		<path class="line line_green" d="M218.1,5.3c0-1.5-1.2-2.7-2.7-2.7h-14.9c-1.5,0-2.7,1.2-2.7,2.7v21.3c0,1.5,1.2,2.7,2.7,2.7h15.1 c1.5,0,2.7-1.2,2.7-2.7L218.1,5.3z"/>
		<circle class="line line_light-green" cx="208" cy="11" r="4.4"/>
		<path class="line line_light-green" d="M199.8,23.6c0-4.5,3.7-8.2,8.2-8.2s8.2,3.7,8.2,8.2H199.8z"/>
		<line class="line line_red" x1="216.2" y1="25.4" x2="199.8" y2="25.4"/>
	</g>
	<g class="edit">
		<path class="back" d="M253,32h-26c-1.6,0-3-1.4-3-3V3c0-1.6,1.4-3,3-3h26c1.6,0,3,1.4,3,3v26C256,30.6,254.6,32,253,32z"/>
		<path fill="#00806A" d="M253.2,7l-1.9-1.9c-0.7-0.7-1.8-0.7-2.5,0l-1.3,1.3l4.4,4.4l1.3-1.3C253.9,8.8,253.9,7.7,253.2,7z"/>
		<polygon fill="#00806A" points="249.9,10.1 240.7,19.3 241.4,19.9 238.9,20.6 237.7,19.4 238.3,16.9 240.1,18.7 249.3,9.4 246.8,7 238.1,15.8 236.4,21.8 242.5,20.2 251.3,11.4"/>
		<path class="line line_green" d="M246.9,5c-0.2-1.3-1.3-2.4-2.6-2.4h-14.9c-1.5,0-2.7,1.2-2.7,2.7v21.3c0,1.5,1.2,2.7,2.7,2.7h15.1 c1.5,0,2.7-1.2,2.7-2.7l-0.1-9.1"/>
		<line class="line line_red" x1="230.2" y1="24.7" x2="243.6" y2="24.7"/>
		<line class="line line_red" x1="234.1" y1="20.4" x2="230.2" y2="20.4"/>
		<line class="line line_red" x1="235.2" y1="16" x2="230.2" y2="16"/>
		<line class="line line_red" x1="238.4" y1="11.6" x2="230.2" y2="11.6"/>
		<line class="line line_red" x1="242.8" y1="7.3" x2="230.2" y2="7.3"/>
	</g>
</svg>
